<svg width="10" height="10" viewBox="0 0 10 10" fill="none" xmlns="http://www.w3.org/2000/svg">
    <path fill-rule="evenodd" clip-rule="evenodd"
          d="M8.35452 1.46875C7.46639 0.5625 6.24751 0 4.89388 0C2.18663 0 0 2.2375 0 5C0 7.7625 2.18663 10 4.89388 10C7.17851 10 9.08339 8.40625 9.62852 6.25H8.35452C7.85227 7.70625 6.49251 8.75 4.89388 8.75C2.86651 8.75 1.21888 7.06875 1.21888 5C1.21888 2.93125 2.86651 1.25 4.89388 1.25C5.91064 1.25 6.81714 1.68125 7.47864 2.3625L6.23248 3.86364H9.62852V0L8.35452 1.46875Z"
          fill="#888888"/>
    <svg width="6" height="6" viewBox="0 0 5 5" fill="none" xmlns="http://www.w3.org/2000/svg" x="2.5" y="1.5">
        <path
                d="M2.78906 4.12109H1.24805L0.955078 5H0.0205078L1.6084 0.734375H2.42285L4.01953 5H3.08496L2.78906 4.12109ZM1.48535 3.40918H2.55176L2.01562 1.8125L1.48535 3.40918Z"
                fill="#888888"/>
    </svg>
</svg>
