<svg width="95" height="75" xmlns="http://www.w3.org/2000/svg" fill-rule="evenodd"><g fill-rule="nonzero" fill="inherit"><path d="M75.326 26.151C75.127 11.698 63.283 0 48.753 0A26.529 26.529 0 0031.22 6.607a26.531 26.531 0 00-8.45 14.461l-.255-.001C10.1 21.067 0 31.145 0 43.533 0 55.921 10.1 66 22.514 66h15.724a2.024 2.024 0 002.026-2.022 2.024 2.024 0 00-2.026-2.021H22.514c-10.18 0-18.462-8.265-18.462-18.424 0-10.158 8.282-18.423 18.462-18.423.543 0 1.116.03 1.753.09 1.08.1 2.05-.667 2.197-1.74A22.473 22.473 0 0133.9 9.64a22.474 22.474 0 0114.854-5.597c12.42 0 22.523 10.083 22.523 22.476 0 .446-.033.906-.068 1.393l-.015.207a2.028 2.028 0 002.224 2.154 16.195 16.195 0 011.615-.081c8.776 0 15.916 7.125 15.916 15.882s-7.14 15.882-15.916 15.882H58.498a2.024 2.024 0 00-2.026 2.022c0 1.117.907 2.022 2.026 2.022h16.534C86.042 66 95 57.06 95 46.074c0-10.888-8.799-19.766-19.674-19.923z"/><path d="M48.965 10c-8.51 0-15.796 6.321-16.946 14.703A2.025 2.025 0 0034.038 27a2.031 2.031 0 002.014-1.75c.876-6.387 6.428-11.204 12.913-11.204A2.029 2.029 0 0051 12.023 2.029 2.029 0 0048.965 10zM58.309 49.423l-7.531-6.573a3.477 3.477 0 00-4.556 0l-7.53 6.573a1.99 1.99 0 00-.166 2.856c.762.833 2.07.905 2.924.16l4.98-4.345v24.883c0 1.118.927 2.023 2.07 2.023 1.143 0 2.07-.905 2.07-2.023V48.093l4.98 4.347a2.09 2.09 0 001.38.514c.568 0 1.135-.228 1.544-.675a1.99 1.99 0 00-.165-2.856z"/></g></svg>