<svg xmlns="http://www.w3.org/2000/svg" viewBox="0 0 340 184"><defs><style>.cls-1{isolation:isolate;}.cls-2{fill:#7c7c7c;}.cls-3{fill:#545454;}.cls-4{fill:#3e3e3e;}.cls-5{fill:#191919;}.cls-6{fill:#424242;}.cls-7{fill:#696969;}.cls-8{fill:#8a8a8a;}.cls-9{fill:#212121;}.cls-10{fill:#292929;}.cls-11{fill:#d1d1d1;}.cls-12{fill:#656565;}.cls-13,.cls-40{fill:#fff;}.cls-14{opacity:0.2;}.cls-15{fill:#333;}.cls-16{fill:#9a9a9a;}.cls-17{fill:#707070;}.cls-18,.cls-21{fill:#b2b2b2;}.cls-18,.cls-20,.cls-38{opacity:0.6;}.cls-18,.cls-20{mix-blend-mode:overlay;}.cls-19{fill:#3a3a3a;}.cls-22{fill:#f7f7f7;}.cls-23{fill:#7d7d7d;}.cls-24{fill:#a8a8a8;}.cls-25{fill:#282828;}.cls-26{fill:#555;}.cls-27{fill:none;stroke:#8d8d8d;stroke-miterlimit:10;stroke-width:3.26px;}.cls-28{fill:#878787;}.cls-29{fill:#7b7b7b;}.cls-30{fill:#e4e4e4;}.cls-31{fill:#717171;}.cls-32,.cls-35{fill:#484848;}.cls-32{opacity:0.3;mix-blend-mode:multiply;}.cls-33{fill:#eaeaea;}.cls-34{fill:#adadad;}.cls-36{fill:#616161;}.cls-37{fill:#c6c6c6;}.cls-39{fill:#9c9c9c;}.cls-40{fill-rule:evenodd;}</style></defs><title>empty_state</title><g class="cls-1"><g id="mock"><g id="truck"><path class="cls-2" d="M229.84 106.85h67.89V98.8h-67.89z"/><path class="cls-3" d="M230.15 105.13h68.55v3.44h-68.55z"/><path class="cls-4" d="M304.81 98.8v6.33h.66v3.44h-68.55V98.8h67.89z"/><path d="M306.89 98.44c-5.87 2.79-12.13 4.94-17.33 8.81a31.63 31.63 0 0 1 12.32-1.65 21.81 21.81 0 0 1 5.01-7.16zM302.77 107a12.14 12.14 0 0 0-.55 4q3.49-1.07 6.84-2.43a24.9 24.9 0 0 0-6.29-1.57z"/><path class="cls-5" d="M93.67 130.4a13.83 13.83 0 0 1 7-12v-1.79h6.81a13.84 13.84 0 1 1 0 27.68h-6.78v-1.79a13.83 13.83 0 0 1-7.03-12.1z"/><path class="cls-5" d="M86.64 130.4a13.83 13.83 0 0 1 7-12v-1.79h6.81a13.84 13.84 0 0 1 0 27.68h-6.78v-1.79a13.83 13.83 0 0 1-7.03-12.1zM122 130.4a13.83 13.83 0 0 1 7-12v-1.79h6.81a13.84 13.84 0 1 1 0 27.68H129v-1.79a13.83 13.83 0 0 1-7-12.1z"/><path class="cls-5" d="M115 130.4a13.83 13.83 0 0 1 7-12v-1.79h6.81a13.84 13.84 0 0 1 0 27.68H122v-1.79a13.83 13.83 0 0 1-7-12.1z"/><circle class="cls-5" cx="122.05" cy="130.4" r="13.84"/><circle class="cls-5" cx="122.05" cy="130.4" r="8.78"/><circle class="cls-5" cx="122.05" cy="130.4" r="7.96"/><path class="cls-5" d="M124.17 122.72a8 8 0 0 1 0 15.35 8 8 0 0 1 0-15.35z"/><circle class="cls-5" cx="124.17" cy="130.4" r="3.5"/><circle class="cls-5" cx="93.67" cy="130.4" r="13.84"/><circle class="cls-5" cx="93.67" cy="130.4" r="8.78"/><circle class="cls-5" cx="93.67" cy="130.4" r="7.96"/><path class="cls-5" d="M95.79 122.72a8 8 0 0 1 0 15.35 8 8 0 0 1 0-15.35z"/><circle class="cls-5" cx="95.79" cy="130.4" r="3.5"/><path class="cls-5" d="M31.72 114.48h177.63l-19.76 18.2H31.72v-18.2z"/><path class="cls-6" d="M265.13 114.72h-36.18v-11.58h36.18z"/><path class="cls-7" d="M228.94 103.14h39.94V45.48a7.82 7.82 0 0 0-7.82-7.82H221.5z"/><path class="cls-8" d="M229.32 103.14H3.69v-57a8.49 8.49 0 0 1 8.49-8.49h208.65a8.49 8.49 0 0 1 8.49 8.49v57z"/><path class="cls-9" d="M257.7 132.68h-70.18a3.6 3.6 0 0 1-3.6-3.6v-11a3.6 3.6 0 0 1 3.6-3.6h70.18v18.2zM3.69 114.48h177.63l-19.76 18.2H8.67a5 5 0 0 1-5-5z"/><path class="cls-10" d="M229.32 114.48H3.69v-11.34h225.63z"/><path class="cls-9" d="M43.5 130.4a13.83 13.83 0 0 1 7-12v-1.79h6.81a13.84 13.84 0 0 1 0 27.68h-6.78v-1.79a13.83 13.83 0 0 1-7.03-12.1z"/><path class="cls-10" d="M36.47 130.4a13.83 13.83 0 0 1 7-12v-1.79h6.81a13.84 13.84 0 1 1 0 27.68H43.5v-1.79a13.83 13.83 0 0 1-7.03-12.1z"/><path class="cls-9" d="M71.87 130.4a13.83 13.83 0 0 1 7-12v-1.79h6.81a13.84 13.84 0 0 1 0 27.68H78.9v-1.79a13.83 13.83 0 0 1-7.03-12.1z"/><path class="cls-10" d="M64.84 130.4a13.83 13.83 0 0 1 7-12v-1.79h6.81a13.84 13.84 0 1 1 0 27.68h-6.78v-1.79a13.83 13.83 0 0 1-7.03-12.1z"/><circle class="cls-6" cx="71.87" cy="130.4" r="13.84"/><circle class="cls-11" cx="71.87" cy="130.4" r="8.78"/><circle class="cls-12" cx="71.87" cy="130.4" r="7.96"/><path class="cls-6" d="M74 122.72a8 8 0 0 1 0 15.35 8 8 0 0 1 0-15.35z"/><circle class="cls-11" cx="73.99" cy="130.4" r="3.5"/><circle class="cls-6" cx="43.5" cy="130.4" r="13.84"/><circle class="cls-11" cx="43.5" cy="130.4" r="8.78"/><circle class="cls-12" cx="43.5" cy="130.4" r="7.96"/><path class="cls-6" d="M45.62 122.72a8 8 0 0 1 0 15.35 8 8 0 0 1 0-15.35z"/><circle class="cls-11" cx="45.62" cy="130.4" r="3.5"/><path class="cls-13" d="M209.35 103.14l-32.74-17.16H3.69v8.58h170.63l17.47 8.58h17.56z"/><path class="cls-14 cls-13" d="M221.91 40.34l-26.01.27-26.01.15-52.02.13-52.02-.13-26.01-.15-26.02-.27 26.02-.26 26.01-.15 52.02-.13 52.02.13 26.01.15 26.01.26zM225.22 106.14l-27.13.27-27.13.15-54.27.12-54.27-.12-27.13-.15-27.14-.27 27.14-.26 27.13-.16 54.27-.12 54.27.13 27.13.15 27.13.26z"/><path class="cls-15" d="M197.86 111.73h43.56l2.01 6.13h-48.1l2.53-6.13zM307.37 116.44c6.36.19 11.39 6.59 11.23 14.3s-5.43 13.82-11.79 13.63h-4.92v-17.66z"/><path class="cls-15" d="M289.94 130.06c.15-7.71 5.43-13.81 11.79-13.63S313.11 123 313 130.74s-5.43 13.82-11.79 13.63-11.43-6.59-11.27-14.31zM233.44 116.44c6.36.19 11.39 6.59 11.23 14.3s-5.43 13.82-11.79 13.63H228v-17.66z"/><path class="cls-15" d="M216 130.06c.15-7.71 5.43-13.81 11.79-13.63S239.18 123 239 130.74s-5.43 13.82-11.79 13.63-11.36-6.59-11.21-14.31z"/><path class="cls-9" d="M184.63 130.06c.15-7.71 5.43-13.81 11.79-13.63s11.39 6.59 11.23 14.3-5.43 13.82-11.79 13.63-11.38-6.58-11.23-14.3zM269.14 116.44c6.36.19 11.39 6.59 11.23 14.3s-5.43 13.82-11.79 13.63h-4.95l5.51-27.93"/><path class="cls-3" d="M238.86 120.4a2.61 2.61 0 0 1-2.64 2.86H235c-1.58 0-2.87-.49-2.87-1.08v-7a2.88 2.88 0 0 1 2.87-2.87h.35a3.17 3.17 0 0 1 3.1 2.86z"/><rect class="cls-9" x="264.77" y="120.08" width="65.67" height="15.66" rx="3.26" ry="3.26"/><path class="cls-16" d="M245.87 70.54V49.46h39.22s34.68 1 34.67 14.28c0 8-13.22 9.53-13.22 9.53z"/><path class="cls-16" d="M289.72 63.7l-9.8 54.3h47.51l2.91-2.21v-5.08a106.06 106.06 0 0 0-.67-11.2c0-.3-.07-.61-.1-.91L326.43 78l-.43-2.8c-1-6.28-4.78-10-7.83-10.43-8.88-1.26 1.42-1.07-28.45-1.07z"/><path class="cls-17" d="M282 78.73l4.13 20.76h43.52c0-.3-.07-.61-.1-.91l-1-6.44-1.51-9.88-.61-4.26h-1.66c-.51 0-.79-.17-.65.72z"/><path class="cls-18" d="M302.48 78.73c3.1 4.23 10.7 14.78 15 20.76h12.19c0-.3-.07-.61-.1-.91l-1-6.44-1.51-9.88-.63-4.26h-1.66c-.51 0-.79-.17-.65.72z"/><path class="cls-19" d="M284.26 78.73l1.43 3.54h41.39l-.65-4.27h-1.66c-.51 0-.79-.17-.65.72z"/><path class="cls-20 cls-21" d="M297.72 78a5 5 0 0 0-4.72 5.22v3c0 2.86 1.69 5.56 3.75 6l4.76 1c.55.12 1-2.13 1-5v-5a5 5 0 0 0-4.79-5.22zM312.53 78a5.22 5.22 0 0 0-5.21 5.21v6a6.73 6.73 0 0 0 5.1 6.29l1.34.29 7.1 1.5c1.1.23 1.66-1.89 1.23-4.73L322 92l-1.44-9.59c-.37-2.44-3-4.44-5.88-4.44z"/><path class="cls-16" d="M328.67 104.74a3.26 3.26 0 0 1 3.26 3.26v4.55a3.19 3.19 0 0 1-3.1 3.26 44.43 44.43 0 0 1-6.31-.56l-4.24-.74a4 4 0 0 1-3.21-3.81V108a3.26 3.26 0 0 1 3.26-3.26z"/><path class="cls-15" d="M279.56 71.3v.92l4.28 2.39 1.85 4.6h43.91c-.52-3.23-1.79-6.23-2.34-8.6-.01.96-47.7.69-47.7.69zM287.09 117.96h-10.14v-4.75l13.54 2.56h39.78v2.19h-43.18z"/><rect class="cls-16" x="288.03" y="117.94" width="44.17" height="15.66" rx="3.26" ry="3.26"/><path class="cls-22" d="M330.44 121.13c1.41 0 2.56 1.46 2.56 3.26v.27c0 1.79-1.15 3.26-2.56 3.26s-2.56-1.46-2.56-3.26v-.27c0-1.8 1.12-3.26 2.56-3.26z"/><path class="cls-16" d="M245.87 63.24v11.37h82.72c-1.22-7.53-1-11.37-6.38-11.37z"/><path class="cls-23" d="M243.11 70.54V49.46h2.13s34.68 1 34.67 14.28c0 8-13.22 9.53-13.22 9.53z"/><path class="cls-16" d="M243.11 58.33V69.7h38.05c-1.22-7.53-1-11.37-6.38-11.37z"/><path class="cls-24" d="M243.11 60.48v9.84h35.36c-1-6.52-.37-9.84-5.38-9.84z"/><path class="cls-23" d="M253.57 110.17h-10.46V63.75h10.46z"/><path class="cls-13" d="M275.87 108.58h8.08v5.94h-8.08z"/><path class="cls-25" d="M181.83 111.73h26.96l2.01 6.13H288.84l-2.61 14.51H179.3v-14.51l2.53-6.13z"/><path class="cls-15" d="M216.47 130.1h-4.83l-1.26-3.39v-8.85h6.09v12.24z"/><path class="cls-23" d="M249.88 63.7v49.39l37.7 4.9 2.91-2.21v-5.08a106 106 0 0 0-.67-11.2c0-.3-.07-.61-.1-.91L286.58 78l-.43-2.8c-1-6.28-4.78-10-7.83-10.43-8.87-1.26 1.42-1.07-28.44-1.07z"/><path class="cls-19" d="M284.28 79.44l1.09 7.19L287 97.59a1.61 1.61 0 0 0 1.14 1.53l1.65.38c0-.3-.07-.61-.1-.91l-1-6.44L286.58 78h-1.66c-.5 0-.78.56-.64 1.44z"/><path class="cls-26" d="M286.76 79.18h-1c-.44 0-.42.35-.36.71l1.07 7.05 2 3.26z"/><path class="cls-23" d="M288.83 104.74a3.26 3.26 0 0 1 3.26 3.26v4.55a3.19 3.19 0 0 1-3.1 3.26 44.43 44.43 0 0 1-6.31-.56l-4.24-.74a4 4 0 0 1-3.21-3.81V108a3.26 3.26 0 0 1 3.26-3.26z"/><path class="cls-9" d="M249.52 72.21v-.92s38 .28 37.89-.7c.55 2.38 1.82 5.38 2.34 8.61h-7.81l-1.85-4.6z"/><path class="cls-23" d="M285.7 115.77v-9.05a86.71 86.71 0 0 0-.75-10.36l-2.34-16a6.23 6.23 0 0 0-6-5.15h-21.2a5.22 5.22 0 0 0-5.21 5.21v34.09"/><path class="cls-27" d="M285.7 115.77v-9.05a86.71 86.71 0 0 0-.75-10.36l-2.34-16a6.23 6.23 0 0 0-6-5.15h-21.2a5.22 5.22 0 0 0-5.21 5.21v34.09"/><path class="cls-28" d="M271.07 98.95c-2.1-.45-3.82.25-3.82 1.55s1.4 2.69 3.1 3.09a4 4 0 0 1 3.1 3.58c0 1.57 1.72 3.23 3.82 3.68l2.08.45a3 3 0 0 0 3.82-3.08v-2.8c0-2.15-.82-4.08-1.82-4.29l-5.64-1.19z"/><path class="cls-19" d="M257.57 78a5 5 0 0 0-4.76 5.21v3c0 2.86 1.69 5.56 3.75 6l4.76 1c.55.12 1-2.13 1-5v-5a5 5 0 0 0-4.75-5.21zM272.38 78a5.22 5.22 0 0 0-5.21 5.21v6a6.73 6.73 0 0 0 5.1 6.29l1.34.29 7.1 1.5c1.1.23 1.66-1.89 1.23-4.73l-.08-.55-1.44-9.59c-.37-2.44-3-4.44-5.88-4.44z"/><path class="cls-27" d="M264.77 75.22v34.95"/><path class="cls-29" d="M243.11 108.94v1.27h20.77c3.81 0 7.41 2.4 10.14 5.63a17.12 17.12 0 0 1 1.48 2.06h1.89a19.07 19.07 0 0 0-2.28-3.4 14.65 14.65 0 0 0-11.23-5.56z"/><path class="cls-15" d="M257.06 117.96h-10.14v-4.75l20 3.22 6.51-.66h16.99v2.19h-33.36zM179.3 128.78v3.59h91.48l19.31-3.59H179.3z"/><path class="cls-15" d="M248.65 130.4v1.97h3.56c0-.23-.05-.46-.07-.69 0-.42-.05-.85-.05-1.28a16.74 16.74 0 0 1 .3-3.15 13.86 13.86 0 0 1 6-9.31h-5.78a19.9 19.9 0 0 0-3.84 9.31 21.89 21.89 0 0 0-.12 3.15z"/><rect class="cls-23" x="266.92" y="117.94" width="25.44" height="15.66" rx="3.26" ry="3.26"/><path class="cls-15" d="M279.54 128.2c-.54-3.75-1.73-7.74-3.79-10.41h-23.9c-2.66 9.9-6.46 14.06-6.46 14.06v2h34.3v-.84c0-.51.05-1 .05-1.54a23 23 0 0 0-.2-3.27z"/><path class="cls-30" d="M290.59 121.13c1.41 0 2.56 1.46 2.56 3.26v.27c0 1.79-1.15 3.26-2.56 3.26s-2.56-1.46-2.56-3.26v-.27c-.03-1.8 1.16-3.26 2.56-3.26z"/><path class="cls-26" d="M269.7 83.53V95l11 2.34c1.09.23 1.83-.66 1.63-2l-2.14-14.25h-8.49a2.27 2.27 0 0 0-2 2.44z"/><path class="cls-20 cls-21" d="M279.84 95.13l-10.71-14.51v-.16a.78.78 0 0 1 .15-.5H273l6.24 7.73 1.14 7.54z"/><path class="cls-23" d="M243.11 63.23h39.25c5.39 0 5.16 3.84 6.38 11.37h-45.63z"/><path class="cls-28" d="M252.11 96.86c0 1.31 1.71 2.79 3.8 3.28l2.53.6c2.09.49 3.8-.17 3.8-1.47s-1.71-2.77-3.8-3.28l-2.54-.61c-2.08-.5-3.79.16-3.79 1.48z"/><path class="cls-31" d="M254.76 82.2v-1.74a.78.78 0 0 1 .15-.5h2.68l2.78 3.45v6.4z"/><path class="cls-9" d="M249 130a19.48 19.48 0 0 0 .06 2l4.9.09a14.44 14.44 0 0 1-.09-2c.13-6.69 4.73-12 10.24-11.83s9.89 5.73 9.75 12.42c0 .67 0 2.57-.15 3.21l3.06.09c.08-.64.1-2.54.11-3.21a17.33 17.33 0 0 0-4.77-12.61c-2.17-2.16-6.76-4.72-9.78-4.8s-5.82 2.3-8.07 4.33A17 17 0 0 0 249 130z"/><path class="cls-15" d="M251.7 130.06c.15-7.71 5.43-13.81 11.79-13.63s11.39 6.59 11.23 14.3-5.43 13.82-11.79 13.63-11.38-6.58-11.23-14.3z"/><path class="cls-32" d="M263 141c4.8.14 8.8-4.48 8.91-10.3s-3.69-10.67-8.49-10.81-8.8 4.48-8.91 10.3 3.7 10.63 8.49 10.81z"/><path class="cls-33" d="M263 139.53c4.15.12 7.6-3.87 7.7-8.9s-3.19-9.22-7.34-9.34-7.6 3.87-7.7 8.9 3.22 9.21 7.34 9.34z"/><path class="cls-34" d="M256.86 130.22a9 9 0 0 0 .23 2.21 7.18 7.18 0 0 0 3.93 5.11 5.28 5.28 0 0 0 1.93.43 5.21 5.21 0 0 0 1.94-.32 7 7 0 0 0 4.11-4.77 9.15 9.15 0 0 0 .09-4.6 7.13 7.13 0 0 0-4-5 5.24 5.24 0 0 0-1.88-.41 5.18 5.18 0 0 0-1.9.3 7 7 0 0 0-4.18 4.88 9.06 9.06 0 0 0-.27 2.17z"/><path class="cls-35" d="M261.25 123.19a2.29 2.29 0 0 0 2 1.33 2 2 0 0 0 1.82-1.33 5.19 5.19 0 0 0-3.78 0zM261 137.53a5.28 5.28 0 0 0 1.93.43 5.21 5.21 0 0 0 1.94-.32 2.2 2.2 0 0 0-1.9-1.48 2.15 2.15 0 0 0-1.97 1.37zM256.86 130.22a9 9 0 0 0 .23 2.21 2.8 2.8 0 0 0 1-2.18 2.86 2.86 0 0 0-.93-2.24 9.06 9.06 0 0 0-.3 2.21zM267.94 130.54a2.82 2.82 0 0 0 1.06 2.33 9.15 9.15 0 0 0 .09-4.6 2.75 2.75 0 0 0-1.15 2.27z"/><path class="cls-33" d="M258.1 130.29a5.43 5.43 0 0 0 .14 1.34 4.35 4.35 0 0 0 2.38 3.09 3.2 3.2 0 0 0 1.17.26 3.15 3.15 0 0 0 1.18-.19 4.22 4.22 0 0 0 2.49-2.89 5.55 5.55 0 0 0 .06-2.79 4.32 4.32 0 0 0-2.4-3 3.17 3.17 0 0 0-1.14-.25 3.14 3.14 0 0 0-1.15.18 4.23 4.23 0 0 0-2.53 3 5.49 5.49 0 0 0-.2 1.25z"/><path class="cls-35" d="M260.28 130.36a2.28 2.28 0 0 0 .06.56 1.82 1.82 0 0 0 1 1.3 1.34 1.34 0 0 0 .49.11 1.33 1.33 0 0 0 .49-.08 1.78 1.78 0 0 0 1-1.22 2.33 2.33 0 0 0 0-1.17 1.81 1.81 0 0 0-1-1.28 1.32 1.32 0 0 0-1 0 1.78 1.78 0 0 0-1.06 1.24 2.31 2.31 0 0 0 .02.54z"/><path class="cls-32" d="M256.86 130.22h1.17a7.35 7.35 0 0 1 .26-1.79 5.67 5.67 0 0 1 3.39-4 4.18 4.18 0 0 1 1.54-.24 4.24 4.24 0 0 1 1.53.33 5.8 5.8 0 0 1 3.21 4.09 7.32 7.32 0 0 1 .2 1.88h1.17a9.08 9.08 0 0 0-.25-2.31 7.13 7.13 0 0 0-4-5 5.24 5.24 0 0 0-1.88-.41 5.18 5.18 0 0 0-1.9.3 7 7 0 0 0-4.18 4.88 9.06 9.06 0 0 0-.26 2.27z"/><path class="cls-36" d="M247.84 126.81c1.41-8.53 7.71-14.88 15.12-14.66s13.46 6.93 14.52 15.54a22 22 0 0 1 .16 3.16c0 .66-.06 1.32-.13 2l-2-.06a19.42 19.42 0 0 0 .14-2 17.33 17.33 0 0 0-4.77-12.61 11.71 11.71 0 0 0-7.94-3.58 11.49 11.49 0 0 0-8.07 3.11 17 17 0 0 0-5.29 12.29 19.46 19.46 0 0 0 .06 2h1.53l-3.56-.11c0-.65-.06-1.31 0-2a21.85 21.85 0 0 1 .23-3.08z"/><path class="cls-9" d="M176.25 130a19.48 19.48 0 0 0 .06 2l4.9.09a14.44 14.44 0 0 1-.09-2c.13-6.69 4.73-12 10.24-11.83s9.89 5.73 9.75 12.42c0 .67 0 2.57-.15 3.21l3.04.11c.08-.64.1-2.54.11-3.21a17.33 17.33 0 0 0-4.77-12.61c-2.17-2.16-6.76-4.72-9.78-4.8s-5.82 2.3-8.07 4.33a17 17 0 0 0-5.24 12.29z"/><path class="cls-15" d="M179 130.06c.15-7.71 5.43-13.81 11.79-13.63S202.17 123 202 130.74s-5.43 13.82-11.79 13.63-11.37-6.59-11.21-14.31z"/><path class="cls-32" d="M190.29 141c4.8.14 8.8-4.48 8.91-10.3s-3.69-10.67-8.49-10.81-8.8 4.48-8.91 10.3 3.69 10.63 8.49 10.81z"/><path class="cls-33" d="M190.32 139.53c4.15.12 7.6-3.87 7.7-8.9s-3.19-9.22-7.34-9.34-7.6 3.87-7.7 8.9 3.19 9.21 7.34 9.34z"/><path class="cls-34" d="M184.15 130.22a9 9 0 0 0 .23 2.21 7.18 7.18 0 0 0 3.93 5.11 5.28 5.28 0 0 0 1.93.43 5.21 5.21 0 0 0 1.94-.32 7 7 0 0 0 4.11-4.77 9.15 9.15 0 0 0 .09-4.6 7.13 7.13 0 0 0-4-5 5.24 5.24 0 0 0-1.88-.41 5.18 5.18 0 0 0-1.9.3 7 7 0 0 0-4.18 4.88 9.06 9.06 0 0 0-.27 2.17z"/><path class="cls-35" d="M188.54 123.19a2.29 2.29 0 0 0 2 1.33 2 2 0 0 0 1.82-1.33 5.19 5.19 0 0 0-3.78 0zM188.31 137.53a5.28 5.28 0 0 0 1.93.43 5.21 5.21 0 0 0 1.94-.32 2.2 2.2 0 0 0-1.9-1.48 2.15 2.15 0 0 0-1.97 1.37zM184.15 130.22a9 9 0 0 0 .23 2.21 2.8 2.8 0 0 0 1-2.18 2.86 2.86 0 0 0-.93-2.24 9.06 9.06 0 0 0-.3 2.21zM195.23 130.54a2.82 2.82 0 0 0 1.06 2.33 9.15 9.15 0 0 0 .09-4.6 2.75 2.75 0 0 0-1.15 2.27z"/><path class="cls-33" d="M185.38 130.29a5.43 5.43 0 0 0 .14 1.34 4.35 4.35 0 0 0 2.38 3.09 3.2 3.2 0 0 0 1.17.26 3.15 3.15 0 0 0 1.18-.19 4.22 4.22 0 0 0 2.49-2.89 5.55 5.55 0 0 0 .06-2.79 4.32 4.32 0 0 0-2.4-3 3.17 3.17 0 0 0-1.14-.25 3.14 3.14 0 0 0-1.15.18 4.23 4.23 0 0 0-2.53 3 5.49 5.49 0 0 0-.2 1.25z"/><path class="cls-35" d="M187.57 130.36a2.28 2.28 0 0 0 .06.56 1.82 1.82 0 0 0 1 1.3 1.34 1.34 0 0 0 .49.11 1.33 1.33 0 0 0 .49-.08 1.78 1.78 0 0 0 1-1.22 2.33 2.33 0 0 0 0-1.17 1.81 1.81 0 0 0-1-1.28 1.32 1.32 0 0 0-1 0 1.78 1.78 0 0 0-1.06 1.24 2.3 2.3 0 0 0 .02.54z"/><path class="cls-32" d="M184.15 130.22h1.17a7.35 7.35 0 0 1 .26-1.79 5.67 5.67 0 0 1 3.39-4 4.18 4.18 0 0 1 1.54-.24 4.24 4.24 0 0 1 1.53.33 5.8 5.8 0 0 1 3.21 4.09 7.32 7.32 0 0 1 .2 1.88h1.17a9.08 9.08 0 0 0-.25-2.31 7.13 7.13 0 0 0-4-5 5.24 5.24 0 0 0-1.88-.41 5.18 5.18 0 0 0-1.9.3 7 7 0 0 0-4.18 4.88 9.06 9.06 0 0 0-.26 2.27z"/><path class="cls-36" d="M175.13 126.81c1.41-8.53 7.71-14.88 15.12-14.66s13.46 6.93 14.52 15.54a22 22 0 0 1 .16 3.16c0 .66-.06 1.32-.13 2l-2-.06a19.42 19.42 0 0 0 .14-2 17.33 17.33 0 0 0-4.77-12.61 11.71 11.71 0 0 0-7.94-3.58 11.49 11.49 0 0 0-8.07 3.11 17 17 0 0 0-5.3 12.29 19.48 19.48 0 0 0 .06 2h1.53l-3.56-.11c0-.65-.06-1.31 0-2a21.85 21.85 0 0 1 .24-3.08z"/><rect class="cls-22" x="292.08" y="121.13" width="8.18" height="6.78" rx="3.26" ry="3.26"/><path class="cls-15" d="M320.73 121.69c2.37 0 3.9 1.57 3.42 3.48s-2.82 3.48-5.19 3.48h-10.32c-2.37 0-4.7-1.57-5.19-3.48s1.05-3.48 3.42-3.48zM322.81 106.47c2.37 0 3.83 1.71 3.26 3.79a5.74 5.74 0 0 1-5.34 3.79h-15.4a5.57 5.57 0 0 1-5.26-3.79c-.52-2.09 1-3.79 3.35-3.79z"/><path class="cls-3" d="M305 74.61l4.48 4.6h11.11l-4.36-4.6H305z"/><rect class="cls-15" x="236.34" y="114.45" width="6.98" height="16.77" rx="1.34" ry="1.34"/><rect class="cls-15" x="214.88" y="114.45" width="6.98" height="16.77" rx="1.34" ry="1.34"/><rect class="cls-37" x="212.44" y="113.86" width="32.12" height="16.34" rx="5.38" ry="5.38"/><path class="cls-38 cls-13" d="M217.82 117a6 6 0 0 1-.88-.06 6.05 6.05 0 0 1 .88-.06h16a6.05 6.05 0 0 1 .88.06 6 6 0 0 1-.88.06z"/><path class="cls-39" d="M212.44 125.64v1.84c0 1.49.88 2.71 1.95 2.71h28.21c1.07 0 2-1.22 2-2.71v-1.84c0 1.49-.88 2.71-2 2.71h-28.21c-1.08.01-1.95-1.21-1.95-2.71z"/><path class="cls-39" d="M239.24 124.83c0 3 1.57 5.38 3.49 5.38s3.49-2.42 3.49-5.38v-5.57c0-3-1.57-5.38-3.49-5.38s-3.49 2.42-3.49 5.38z"/><path class="cls-3" d="M249 124.58c.19 2.36-1.22 4.29-3.14 4.29s-3.49-.49-3.49-1.08v-5.55c0-2.37 1.37-4.3 3-4.3s3.2 1.93 3.39 4.29z"/><path class="cls-16" d="M245.87 63.24v11.37h82.72c-.4-2.43-.64-4.47-1-6.13-.69-3.48-1.77-5.24-5.42-5.24z"/><path class="cls-8" d="M279.93 63.24c3.12 0 4.35 1.29 5.08 3.83a1.79 1.79 0 0 0 1.66 1.42h40.95c-.69-3.48-1.77-5.24-5.42-5.24z"/><g id="_Skupina_" data-name="&lt;Skupina&gt;"><path id="_Cesta_" data-name="&lt;Cesta&gt;" class="cls-40" d="M26.66 77.8a5.42 5.42 0 0 0 .8.18c.47.1 1.38.34 1.38 1a.79.79 0 0 1-.43.7 2.09 2.09 0 0 1-1 .23 2.33 2.33 0 0 1-1.29-.33 1.22 1.22 0 0 1-.5-.88h-1.8a2.28 2.28 0 0 0 .83 1.87 4 4 0 0 0 2.49.67 4.61 4.61 0 0 0 2.64-.64 2.29 2.29 0 0 0 .91-1.95 1.78 1.78 0 0 0-.53-1.35 5.75 5.75 0 0 0-2.07-.87 1.31 1.31 0 0 1-.27 0l-.32-.09a5 5 0 0 1-1.21-.38c-.22-.11-.47-.3-.47-.57a.76.76 0 0 1 .33-.66 2 2 0 0 1 1-.2 1.8 1.8 0 0 1 1.09.3l.24.24a.82.82 0 0 0 .76.44h1.16a2.5 2.5 0 0 0-.88-1.72 4.06 4.06 0 0 0-2.43-.67 3.67 3.67 0 0 0-2.28.67 2.27 2.27 0 0 0-.83 1.8 1.73 1.73 0 0 0 .56 1.35 5 5 0 0 0 2.09.9z"/><path id="_Složená_cesta_" data-name="&lt;Složená cesta&gt;" class="cls-40" d="M31.74 77.09a4.49 4.49 0 0 0 .94 3 3.25 3.25 0 0 0 2.59 1.07 3.74 3.74 0 0 0 2.28-.67 3.12 3.12 0 0 0 1.17-1.68h-1.33a.8.8 0 0 0-.47.12.84.84 0 0 0-.18.17l-.17.17a.59.59 0 0 1-.21.13 1.87 1.87 0 0 1-.94.22 1.58 1.58 0 0 1-1.29-.53 2.26 2.26 0 0 1-.49-1.48v-.15h5.28v-.4a4.55 4.55 0 0 0-.93-3 3.52 3.52 0 0 0-2.71-1 3.25 3.25 0 0 0-2.59 1.07 4.42 4.42 0 0 0-.9 2.94zm1.87-.76a1.9 1.9 0 0 1 .5-1.31 1.62 1.62 0 0 1 1.19-.47 1.6 1.6 0 0 1 1.22.47 2.13 2.13 0 0 1 .46 1.3v.15h-3.37v-.15z"/><path id="_Složená_cesta_2" data-name="&lt;Složená cesta&gt;" class="cls-40" d="M56.62 74.2a4.83 4.83 0 0 0-.85 3 4.76 4.76 0 0 0 .85 3 2.39 2.39 0 0 0 1.15.79 4.59 4.59 0 0 0 1.5.25 5 5 0 0 0 2.62-.74 3.08 3.08 0 0 0 1.18-2.79v-5.96a.87.87 0 0 0-.26-.61.83.83 0 0 0-.62-.27h-.89v3.8l-.3-.42a2.77 2.77 0 0 0-.92-.89 2.82 2.82 0 0 0-3.49.84zM58 75.31a1.59 1.59 0 0 1 1.36-.69 1.73 1.73 0 0 1 1.41.66 3.1 3.1 0 0 1 .48 1.81 3.56 3.56 0 0 1-.41 1.91 1.62 1.62 0 0 1-1.39.7A1.65 1.65 0 0 1 58 79a3.37 3.37 0 0 1-.48-1.93 3 3 0 0 1 .48-1.76z"/><path id="_Složená_cesta_3" data-name="&lt;Složená cesta&gt;" class="cls-40" d="M65.09 74.15a4.42 4.42 0 0 0-.9 2.94 4.49 4.49 0 0 0 .94 3 3.25 3.25 0 0 0 2.59 1.07 3.74 3.74 0 0 0 2.28-.64 3.12 3.12 0 0 0 1.17-1.68h-1.34a.8.8 0 0 0-.47.12.84.84 0 0 0-.18.17l-.17.17a.58.58 0 0 1-.21.13 1.87 1.87 0 0 1-.94.22 1.58 1.58 0 0 1-1.29-.53 2.26 2.26 0 0 1-.49-1.48v-.15h5.28v-.4a4.55 4.55 0 0 0-.93-3 3.52 3.52 0 0 0-2.71-1 3.25 3.25 0 0 0-2.59 1.07zm1 2.18a1.9 1.9 0 0 1 .5-1.31 1.62 1.62 0 0 1 1.19-.47A1.6 1.6 0 0 1 69 75a2.13 2.13 0 0 1 .46 1.3v.15H66v-.15z"/><path id="_Cesta_2" data-name="&lt;Cesta&gt;" class="cls-40" d="M72.79 75.34a4.89 4.89 0 0 0-.34 1.93V81h1.84v-4a2 2 0 0 1 .47-1.43 1.94 1.94 0 0 1 1.4-.47h.56v-1.84h-.16a5.82 5.82 0 0 0-1.55.21 3.63 3.63 0 0 0-1.3.64 3.17 3.17 0 0 0-.91 1.23z"/><path id="_Cesta_3" data-name="&lt;Cesta&gt;" class="cls-40" d="M45 76v4.12a.9.9 0 0 0 1.81 0v-3.66a3 3 0 0 0-3-3.35v-.46l-1.46 1.29L43.8 75v-.47A1.49 1.49 0 0 1 45 76z"/><path id="_Cesta_4" data-name="&lt;Cesta&gt;" class="cls-40" d="M40 76.45v3.83c0 1 1.84 1 1.84 0V76a1.45 1.45 0 0 1 .82-1.39l-.91-.61.94-.83A3 3 0 0 0 40 76.45z"/><path id="_Cesta_5" data-name="&lt;Cesta&gt;" class="cls-40" d="M49.7 76v4.12a.9.9 0 0 1-1.81 0v-3.66a3 3 0 0 1 3-3.35v-.46l1.46 1.29L50.86 75v-.47A1.49 1.49 0 0 0 49.7 76z"/><path id="_Cesta_6" data-name="&lt;Cesta&gt;" class="cls-40" d="M54.65 76.45v3.83c0 1-1.84 1-1.84 0V76a1.45 1.45 0 0 0-.81-1.36l.92-.67-.92-.82a3 3 0 0 1 2.67 3.31z"/><path id="_Cesta_7" data-name="&lt;Cesta&gt;" class="cls-40" d="M15.53 80L12 76.49c-.81-.81-2.3.69-1.5 1.5l3.16 3.16c1.49 1.49 3.14 1.77 4.88.55l-1.42.09.21-1.3a1.71 1.71 0 0 1-1.8-.49z"/><path id="_Cesta_8" data-name="&lt;Cesta&gt;" class="cls-40" d="M13.08 76.47l3 3A1 1 0 0 0 17.59 78l-3.4-3.4a1.76 1.76 0 0 1-.28-2.21l.38.38.33-2-2.23.13.37.37c-1.5 1.79-1.31 3.57.32 5.2z"/><path id="_Cesta_9" data-name="&lt;Cesta&gt;" class="cls-40" d="M18.11 77.42a1.76 1.76 0 0 1 .28 2.21l-.39-.37-.33 2 2.23-.13-.37-.37c1.5-1.79 1.31-3.57-.32-5.2l-3-3a1 1 0 0 0-1.5 1.44l3.4 3.4z"/><path id="_Cesta_10" data-name="&lt;Cesta&gt;" class="cls-40" d="M16.78 72.06l3.51 3.51c.81.81 2.3-.69 1.5-1.5l-3.16-3.16c-1.49-1.49-3.14-1.77-4.88-.55l1.42-.09-.17 1.31a1.71 1.71 0 0 1 1.81.48z"/></g></g></g></g></svg>