<svg xmlns="http://www.w3.org/2000/svg" viewBox="0 0 61.4 67.33"><defs><style>.a{fill:#FF8300;fill-rule:evenodd;}</style></defs><title>logo</title><path class="a" d="M27.42,54.44,9,36.06C4.83,31.83-3,39.67,1.21,43.9L17.76,60.44c7.79,7.79,16.41,9.27,25.51,2.88l-7.45.45,1.1-6.82c-3.48,1.24-6.92.07-9.49-2.5Z"/><path class="a" d="M14.63,36,30.54,51.88c5,5,12.73-2.66,7.7-7.7l-17.8-17.8A9.19,9.19,0,0,1,19,14.82l0-.08,2,2L22.76,6.12l-11.65.7L13,8.73l0,.05C5.14,18.13,6.13,27.47,14.63,36Z"/><path class="a" d="M41,40.95a9.19,9.19,0,0,1,1.45,11.56l0,.08-2-2L38.64,61.21l11.65-.7L48.38,58.6l0-.05c7.83-9.35,6.84-18.69-1.66-27.19L30.85,15.45c-5-5-12.73,2.66-7.7,7.7L41,40.95Z"/><path class="a" d="M34,12.89,52.35,31.26c4.22,4.23,12.05-3.61,7.84-7.84L43.64,6.88C35.85-.91,27.23-2.39,18.13,4l7.45-.45-1.1,6.82C28,9.14,31.4,10.32,34,12.89Z"/></svg>