<svg xmlns="http://www.w3.org/2000/svg" viewBox="0 0 347.52 67.33"><defs><style>.a{fill:#818284;}.a,.b{fill-rule:evenodd;}.b{fill:#e8873c;}</style></defs><title>Kreslicí plátno 1</title><path class="a" d="M85.66,42.95a28.36,28.36,0,0,0,4.18.93h0c2.45.52,7.24,1.76,7.24,5a4.12,4.12,0,0,1-2.27,3.66h0a10.92,10.92,0,0,1-5.27,1.2A12.19,12.19,0,0,1,82.8,52h0a6.39,6.39,0,0,1-2.62-4.63H70.79c.05,3.86,1.21,7.33,4.32,9.78h0c3.46,2.86,8.68,3.48,13,3.48,4.51,0,10.07-.59,13.82-3.35,3.37-2.52,4.78-6,4.78-10.19A9.3,9.3,0,0,0,104,40.07c-2.68-2.25-7.5-3.71-10.85-4.56a6.86,6.86,0,0,1-1.42-.18c-.57-.13-1.13-.3-1.69-.48a26,26,0,0,1-6.33-2c-1.15-.6-2.46-1.56-2.46-3A4,4,0,0,1,83,26.38h0a10.43,10.43,0,0,1,5.14-1.05,9.42,9.42,0,0,1,5.68,1.57l0,0,0,0q.62.64,1.26,1.26l.07.07.05.09a4.29,4.29,0,0,0,3.95,2.33h6a13.07,13.07,0,0,0-4.58-9C97,19,92.39,18.22,88,18.22c-4.24,0-8.47.87-11.9,3.49a11.86,11.86,0,0,0-4.33,9.41,9,9,0,0,0,2.92,7.07h0c2.43,2.43,7.67,3.93,10.91,4.72h.06Z"/><path class="a" d="M112.26,39.21c0,5.59,1.06,11.54,4.89,15.85,3.52,4.06,8.27,5.62,13.56,5.62a19.56,19.56,0,0,0,11.93-3.51h0a16.31,16.31,0,0,0,6.11-8.81h-7a4.18,4.18,0,0,0-2.48.64,4.39,4.39,0,0,0-.92.89l-.05.17-.13.13-.88.88a3.06,3.06,0,0,1-1.08.7A9.76,9.76,0,0,1,131.35,53a8.28,8.28,0,0,1-6.74-2.8c-1.91-2-2.47-5-2.56-7.76l0-.76h27.61c0-.15,0-.29,0-.37V39.52c0-5.62-1.11-11.47-4.89-15.84-3.74-4.06-8.82-5.46-14.2-5.46s-10,1.55-13.55,5.62c-3.66,4.24-4.73,9.92-4.73,15.38Zm9.78-4a9.91,9.91,0,0,1,2.6-6.84,8.49,8.49,0,0,1,6.23-2.44,8.39,8.39,0,0,1,6.4,2.46c1.66,1.81,2.24,4.42,2.41,6.8l.06.79H122l0-.77Z"/><path class="a" d="M242.38,24.12c-3.4,4.45-4.45,10.09-4.45,15.57s1,11.17,4.44,15.55a12.49,12.49,0,0,0,6,4.11,24,24,0,0,0,7.84,1.31,25.93,25.93,0,0,0,13.73-3.86c5-3,6.15-9.15,6.15-14.59V11.29a4.56,4.56,0,0,0-1.38-3.21,4.33,4.33,0,0,0-3.27-1.43H266.8V26.53l-1.36-2.15a14.5,14.5,0,0,0-4.81-4.67,14.73,14.73,0,0,0-18.24,4.41Zm7.38,5.77a8.29,8.29,0,0,1,7.09-3.63,9,9,0,0,1,7.4,3.44v0c1.94,2.72,2.52,6.19,2.52,9.47s-.45,7.23-2.34,10.09h0A8.45,8.45,0,0,1,257.18,53a8.61,8.61,0,0,1-7.42-3.64c-2-2.84-2.52-6.71-2.52-10.11,0-3.21.55-6.68,2.52-9.32Z"/><path class="a" d="M286.68,23.83c-3.65,4.24-4.73,9.92-4.73,15.38s1.06,11.54,4.89,15.85c3.52,4.06,8.27,5.62,13.56,5.62a19.56,19.56,0,0,0,11.93-3.51h0a16.31,16.31,0,0,0,6.11-8.81h-7A4.18,4.18,0,0,0,309,49a4.4,4.4,0,0,0-.92.89l-.05.17-.13.13-.88.88a3.06,3.06,0,0,1-1.08.7A9.76,9.76,0,0,1,301,53a8.28,8.28,0,0,1-6.74-2.8c-1.91-2-2.47-5-2.56-7.76l0-.76h27.61c0-.15,0-.29,0-.37V39.52c0-5.62-1.11-11.47-4.89-15.84-3.74-4.06-8.82-5.46-14.2-5.46s-10,1.55-13.56,5.62Zm5,11.38a9.92,9.92,0,0,1,2.6-6.84,8.49,8.49,0,0,1,6.23-2.44A8.39,8.39,0,0,1,307,28.4c1.66,1.81,2.24,4.42,2.41,6.8l.06.79H291.7l0-.77Z"/><path class="a" d="M327,30.07a25.6,25.6,0,0,0-1.77,10.09V59.88h9.62v-21c0-2.64.49-5.56,2.44-7.51S342,29,344.61,29h2.91V19.18h-.86a30.45,30.45,0,0,0-8.13,1.08,19,19,0,0,0-6.79,3.36A16.58,16.58,0,0,0,327,30.07Z"/><path class="b" d="M181.4,33.64V55.21c0,6.22,9.45,6.1,9.45,0V35.94c0-10.62-5.35-16.64-15.53-17.54V16l-7.64,6.77,7.64,5.51V25.82a7.81,7.81,0,0,1,6.08,7.82Z"/><path class="a" d="M155.53,35.89v20c0,5.2,9.62,5.2,9.62,0V33.67a7.57,7.57,0,0,1,4.29-7.26l-4.83-3.48,4.89-4.34c-9.07,1.51-14,7.21-14,17.29Z"/><path class="b" d="M206.2,33.64V55.21c0,6.22-9.45,6.1-9.45,0V35.94c0-10.62,5.35-16.64,15.52-17.54V16l7.64,6.77-7.64,5.51V25.82a7.81,7.81,0,0,0-6.08,7.82Z"/><path class="a" d="M232.08,35.89v20c0,5.2-9.62,5.2-9.62,0V33.67a7.57,7.57,0,0,0-4.29-7.26L223,22.93l-4.89-4.34c9.07,1.51,14,7.21,14,17.29Z"/><path class="a" d="M27.42,54.44,9,36.06C4.83,31.83-3,39.67,1.21,43.9L17.76,60.44c7.79,7.79,16.41,9.27,25.51,2.88l-7.45.45,1.1-6.82c-3.48,1.24-6.92.07-9.49-2.5Z"/><path class="b" d="M14.63,36,30.54,51.88c5,5,12.73-2.66,7.7-7.7l-17.8-17.8A9.19,9.19,0,0,1,19,14.82l0-.08,2,2L22.76,6.12l-11.65.7L13,8.73l0,.05C5.14,18.13,6.13,27.47,14.63,36Z"/><path class="b" d="M41,40.95a9.19,9.19,0,0,1,1.45,11.56l0,.08-2-2L38.64,61.21l11.65-.7L48.38,58.6l0-.05c7.83-9.35,6.84-18.69-1.66-27.19L30.85,15.45c-5-5-12.73,2.66-7.7,7.7L41,40.95Z"/><path class="a" d="M34,12.89,52.35,31.26c4.22,4.23,12.05-3.61,7.84-7.84L43.64,6.88C35.85-.91,27.23-2.39,18.13,4l7.45-.45-1.1,6.82C28,9.14,31.4,10.32,34,12.89Z"/></svg>