<svg xmlns="http://www.w3.org/2000/svg" viewBox="0 0 276.73 67.33"><defs><style>.a{fill:#FF8300;fill-rule:evenodd;}</style></defs><title>logo_text</title><path class="a" d="M14.87,42.95a28.36,28.36,0,0,0,4.18.93h0c2.45.52,7.24,1.76,7.24,5A4.12,4.12,0,0,1,24,52.54h0a10.92,10.92,0,0,1-5.27,1.2A12.19,12.19,0,0,1,12,52h0a6.39,6.39,0,0,1-2.62-4.63H0c.05,3.86,1.21,7.33,4.32,9.78h0c3.46,2.86,8.68,3.48,13,3.48,4.51,0,10.07-.59,13.82-3.35,3.37-2.52,4.78-6,4.78-10.19a9.3,9.3,0,0,0-2.77-7.07c-2.68-2.25-7.5-3.71-10.85-4.56a6.86,6.86,0,0,1-1.42-.18c-.57-.13-1.13-.3-1.69-.48a26,26,0,0,1-6.33-2c-1.15-.6-2.46-1.56-2.46-3a4,4,0,0,1,1.75-3.47h0a10.43,10.43,0,0,1,5.14-1.05A9.42,9.42,0,0,1,23,26.87l0,0,0,0q.62.64,1.26,1.26l.07.07.05.09a4.29,4.29,0,0,0,3.95,2.33h6a13.07,13.07,0,0,0-4.58-9C26.24,19,21.6,18.22,17.18,18.22c-4.24,0-8.47.87-11.9,3.49A11.86,11.86,0,0,0,.95,31.12a9,9,0,0,0,2.92,7.07h0c2.43,2.43,7.67,3.93,10.91,4.72h.06Z"/><path class="a" d="M41.47,39.21c0,5.59,1.06,11.54,4.89,15.85,3.52,4.06,8.27,5.62,13.56,5.62a19.56,19.56,0,0,0,11.93-3.51h0A16.31,16.31,0,0,0,78,48.36H71a4.18,4.18,0,0,0-2.48.64,4.39,4.39,0,0,0-.92.89l-.05.17-.13.13-.88.88a3.06,3.06,0,0,1-1.08.7A9.76,9.76,0,0,1,60.56,53a8.28,8.28,0,0,1-6.74-2.8c-1.91-2-2.47-5-2.56-7.76l0-.76H78.83c0-.15,0-.29,0-.37V39.52c0-5.62-1.11-11.47-4.89-15.84-3.74-4.06-8.82-5.46-14.2-5.46s-10,1.55-13.55,5.62c-3.66,4.24-4.73,9.92-4.73,15.38Zm9.78-4a9.91,9.91,0,0,1,2.6-6.84,8.49,8.49,0,0,1,6.23-2.44,8.39,8.39,0,0,1,6.4,2.46c1.66,1.81,2.24,4.42,2.41,6.8L69,36H51.22l0-.77Z"/><path class="a" d="M171.59,24.12c-3.4,4.45-4.45,10.09-4.45,15.57s1,11.17,4.44,15.55a12.49,12.49,0,0,0,6,4.11,24,24,0,0,0,7.84,1.31,25.93,25.93,0,0,0,13.73-3.86c5-3,6.15-9.15,6.15-14.59V11.29a4.56,4.56,0,0,0-1.38-3.21,4.33,4.33,0,0,0-3.27-1.43H196V26.53l-1.36-2.15a14.5,14.5,0,0,0-4.81-4.67,14.73,14.73,0,0,0-18.24,4.41ZM179,29.9a8.29,8.29,0,0,1,7.09-3.63,9,9,0,0,1,7.4,3.44v0c1.94,2.72,2.52,6.19,2.52,9.47s-.45,7.23-2.34,10.09h0A8.45,8.45,0,0,1,186.39,53,8.61,8.61,0,0,1,179,49.32c-2-2.84-2.52-6.71-2.52-10.11,0-3.21.55-6.68,2.52-9.32Z"/><path class="a" d="M215.89,23.83c-3.65,4.24-4.73,9.92-4.73,15.38s1.06,11.54,4.89,15.85c3.52,4.06,8.27,5.62,13.56,5.62a19.56,19.56,0,0,0,11.93-3.51h0a16.31,16.31,0,0,0,6.11-8.81h-7a4.18,4.18,0,0,0-2.48.64,4.4,4.4,0,0,0-.92.89l-.05.17-.13.13-.88.88a3.06,3.06,0,0,1-1.08.7A9.76,9.76,0,0,1,230.24,53a8.28,8.28,0,0,1-6.74-2.8c-1.91-2-2.47-5-2.56-7.76l0-.76h27.61c0-.15,0-.29,0-.37V39.52c0-5.62-1.11-11.47-4.89-15.84-3.74-4.06-8.82-5.46-14.2-5.46s-10,1.55-13.56,5.62Zm5,11.38a9.92,9.92,0,0,1,2.6-6.84,8.49,8.49,0,0,1,6.23-2.44,8.39,8.39,0,0,1,6.4,2.46c1.66,1.81,2.24,4.42,2.41,6.8l.06.79H220.9l0-.77Z"/><path class="a" d="M256.18,30.07a25.6,25.6,0,0,0-1.77,10.09V59.88H264v-21c0-2.64.49-5.56,2.44-7.51S271.2,29,273.81,29h2.91V19.18h-.86a30.45,30.45,0,0,0-8.13,1.08A19,19,0,0,0,261,23.62a16.58,16.58,0,0,0-4.78,6.46Z"/><path class="a" d="M110.61,33.64V55.21c0,6.22,9.45,6.1,9.45,0V35.94c0-10.62-5.35-16.64-15.53-17.54V16l-7.64,6.77,7.64,5.51V25.82a7.81,7.81,0,0,1,6.08,7.82Z"/><path class="a" d="M84.74,35.89v20c0,5.2,9.62,5.2,9.62,0V33.67a7.57,7.57,0,0,1,4.29-7.26l-4.83-3.48,4.89-4.34c-9.07,1.51-14,7.21-14,17.29Z"/><path class="a" d="M135.41,33.64V55.21c0,6.22-9.45,6.1-9.45,0V35.94c0-10.62,5.35-16.64,15.52-17.54V16l7.64,6.77-7.64,5.51V25.82a7.81,7.81,0,0,0-6.08,7.82Z"/><path class="a" d="M161.28,35.89v20c0,5.2-9.62,5.2-9.62,0V33.67a7.57,7.57,0,0,0-4.29-7.26l4.83-3.48-4.89-4.34c9.07,1.51,14,7.21,14,17.29Z"/></svg>