<svg xmlns="http://www.w3.org/2000/svg"><path d="M23.4 0H7.8C6.37 0 5.2 1.17 5.2 2.6v15.6c0 1.43 1.17 2.6 2.6 2.6h15.6c1.43 0 2.6-1.17 2.6-2.6V2.6C26 1.17 24.83 0 23.4 0zM2.6 5.2H0v18.2C0 24.83 1.17 26 2.6 26h18.2v-2.6H2.6V5.2zm6.946 2.728c0-.373.065-.702.195-.988a2.088 2.088 0 011.229-1.131c.264-.095.53-.143.799-.143s.535.048.8.143c.264.095.504.234.721.416.208.19.377.429.507.715s.195.615.195.988v.468h-1.326v-.468c0-.32-.089-.557-.267-.708a.94.94 0 00-.63-.228.94.94 0 00-.63.228c-.178.151-.267.387-.267.708v4.888c0 .32.089.557.267.708a.94.94 0 00.63.228.94.94 0 00.63-.228c.178-.151.267-.387.267-.708v-1.742h-1.053v-1.17h2.379v2.912c0 .39-.065.724-.195 1.001-.13.277-.299.507-.507.689a2.23 2.23 0 01-.721.429c-.265.095-.531.143-.8.143s-.535-.048-.8-.143a2.086 2.086 0 01-.708-.429 1.985 1.985 0 01-.52-.689c-.13-.277-.195-.611-.195-1.001V7.928zM15.49 15V5.744h1.326V15H15.49zm2.902 0V5.744h3.952v1.248h-2.626V9.8h2.288v1.248h-2.288V15h-1.326z" fill="inherit"/></svg>