<svg xmlns="http://www.w3.org/2000/svg"><path d="M23.4 0H7.8C6.37 0 5.2 1.17 5.2 2.6v15.6c0 1.43 1.17 2.6 2.6 2.6h15.6c1.43 0 2.6-1.17 2.6-2.6V2.6C26 1.17 24.83 0 23.4 0zM2.6 5.2H0v18.2C0 24.83 1.17 26 2.6 26h18.2v-2.6H2.6V5.2zm8.605.544v7.072c0 .633-.2 1.161-.598 1.586-.2.208-.435.373-.708.494a2.335 2.335 0 01-.956.182c-.425 0-.778-.093-1.06-.28a3.522 3.522 0 01-.669-.552l1.04-.832c.095.095.206.175.332.24a.852.852 0 00.968-.123.843.843 0 00.234-.332c.06-.143.091-.331.091-.565v-6.89h1.326zM12.742 15V5.744h1.989c.364 0 .685.048.962.143.277.095.529.264.754.507.225.243.381.526.468.851.087.326.13.765.13 1.32a6.5 6.5 0 01-.072 1.053c-.047.286-.15.555-.305.806-.182.303-.425.54-.728.709-.303.169-.702.253-1.196.253h-.676V15h-1.326zm1.326-8.008v3.146h.637c.269 0 .477-.039.624-.117a.736.736 0 00.325-.325c.07-.13.11-.29.123-.481.013-.19.02-.403.02-.637 0-.217-.004-.422-.013-.617a1.336 1.336 0 00-.117-.514.738.738 0 00-.312-.338c-.139-.078-.338-.117-.598-.117h-.69zm4.176.936c0-.373.065-.702.195-.988a2.088 2.088 0 011.228-1.131c.265-.095.531-.143.8-.143.268 0 .535.048.8.143.264.095.504.234.72.416.209.19.378.429.508.715s.195.615.195.988v.468h-1.326v-.468c0-.32-.09-.557-.267-.708a.94.94 0 00-.63-.228.94.94 0 00-.63.228c-.178.151-.267.387-.267.708v4.888c0 .32.089.557.266.708a.94.94 0 00.63.228.94.94 0 00.631-.228c.178-.151.267-.387.267-.708v-1.742H20.31v-1.17h2.379v2.912c0 .39-.065.724-.195 1.001-.13.277-.3.507-.507.689a2.23 2.23 0 01-.722.429c-.264.095-.53.143-.8.143-.268 0-.534-.048-.799-.143a2.086 2.086 0 01-.708-.429 1.985 1.985 0 01-.52-.689c-.13-.277-.195-.611-.195-1.001V7.928z" fill="inherit"/></svg>