<svg xmlns="http://www.w3.org/2000/svg"><path d="M23.4 0H7.8C6.37 0 5.2 1.17 5.2 2.6v15.6c0 1.43 1.17 2.6 2.6 2.6h15.6c1.43 0 2.6-1.17 2.6-2.6V2.6C26 1.17 24.83 0 23.4 0zM2.6 5.2H0v18.2C0 24.83 1.17 26 2.6 26h18.2v-2.6H2.6V5.2zM8.624 15V5.744h1.989c.364 0 .685.048.962.143.277.095.529.264.754.507.225.243.381.526.468.851.087.326.13.765.13 1.32a6.5 6.5 0 01-.072 1.053 2.187 2.187 0 01-.305.806c-.182.303-.425.54-.728.709-.303.169-.702.253-1.196.253H9.95V15H8.624zM9.95 6.992v3.146h.637c.269 0 .477-.039.624-.117a.736.736 0 00.325-.325c.07-.13.11-.29.124-.481a9.44 9.44 0 00.019-.637c0-.217-.004-.422-.013-.617a1.336 1.336 0 00-.117-.514.738.738 0 00-.312-.338c-.139-.078-.338-.117-.598-.117H9.95zM14.204 15V5.744h1.963c.763 0 1.341.208 1.735.624.395.416.592 1.005.592 1.768v4.329c0 .867-.21 1.506-.63 1.918-.42.411-1.025.617-1.814.617h-1.846zm1.326-8.008v6.76h.61c.374 0 .638-.093.794-.28.156-.186.234-.478.234-.877V8.136c0-.364-.074-.646-.221-.845-.147-.2-.416-.299-.806-.299h-.611zM20.03 15V5.744h3.953v1.248h-2.626V9.8h2.288v1.248h-2.288V15H20.03z" fill="inherit"/></svg>