<svg xmlns="http://www.w3.org/2000/svg"><path d="M23.4 0H7.8C6.37 0 5.2 1.17 5.2 2.6v15.6c0 1.43 1.17 2.6 2.6 2.6h15.6c1.43 0 2.6-1.17 2.6-2.6V2.6C26 1.17 24.83 0 23.4 0zM2.6 5.2H0v18.2C0 24.83 1.17 26 2.6 26h18.2v-2.6H2.6V5.2zM8.124 15V5.744h1.989c.364 0 .685.048.962.143.277.095.529.264.754.507.225.243.381.526.468.851.087.326.13.765.13 1.32a6.5 6.5 0 01-.072 1.053 2.187 2.187 0 01-.305.806c-.182.303-.425.54-.728.709-.303.169-.702.253-1.196.253H9.45V15H8.124zM9.45 6.992v3.146h.637c.269 0 .477-.039.624-.117a.736.736 0 00.325-.325c.07-.13.11-.29.124-.481a9.44 9.44 0 00.019-.637c0-.217-.004-.422-.013-.617a1.336 1.336 0 00-.117-.514.738.738 0 00-.312-.338c-.139-.078-.338-.117-.598-.117H9.45zM13.652 15V5.744h1.274l2.002 5.577h.026V5.744h1.326V15h-1.248l-2.028-5.564h-.026V15h-1.326zm6.035-7.072c0-.373.065-.702.195-.988a2.088 2.088 0 011.228-1.131c.265-.095.531-.143.8-.143.268 0 .535.048.8.143.264.095.504.234.72.416.209.19.378.429.508.715s.195.615.195.988v.468h-1.326v-.468c0-.32-.09-.557-.267-.708a.94.94 0 00-.63-.228.94.94 0 00-.63.228c-.178.151-.267.387-.267.708v4.888c0 .32.089.557.266.708a.94.94 0 00.63.228.94.94 0 00.631-.228c.178-.151.267-.387.267-.708v-1.742h-1.053v-1.17h2.379v2.912c0 .39-.065.724-.195 1.001-.13.277-.3.507-.507.689a2.23 2.23 0 01-.722.429c-.264.095-.53.143-.8.143-.268 0-.534-.048-.799-.143a2.086 2.086 0 01-.708-.429 1.985 1.985 0 01-.52-.689c-.13-.277-.195-.611-.195-1.001V7.928z" fill="inherit"/></svg>